<?xml version="1.0" encoding="iso-8859-1"?>
<!-- Uploaded to: SVG Repo, www.svgrepo.com, Generator: SVG Repo Mixer Tools -->
<svg fill="#000000" height="800px" width="800px" version="1.1" id="Layer_1" xmlns="http://www.w3.org/2000/svg" xmlns:xlink="http://www.w3.org/1999/xlink" 
	 viewBox="0 0 511.998 511.998" xml:space="preserve">
<g>
	<g>
		<path d="M504.665,357.41c-11.949-24.712-52.576-61.438-69.586-78.323c-7.188-7.135-16.056-12.204-26.179-12.204
			c-6.215,0-12.323,1.699-17.663,4.915l-6.855,4.129c14.187-52.553-12.964-107.571-63.293-125.292
			c-15.799-5.563-32.998-6.753-49.896-4.561c1.001-0.615,2.007-1.224,3.039-1.79c11.219-6.145,16.326-19.817,11.878-31.8
			l-9.756-26.293c-5.733-15.448-24.138-21.633-38.021-13.044c-7.519,4.653-19.321,13.229-30.648,26.598
			c-3.873-20.146-15.52-38.906-29.904-53.289C150.421,19.096,85.777,8.461,78.966,8.461c-6.561,0-12.73,2.555-17.369,7.194
			c-5.583,5.583-8.151,13.567-6.868,21.361c4.208,25.555,14.698,71.854,37.669,94.824c5.011,5.011,10.373,9.499,15.949,13.412
			c-14.163-0.838-28.204,0.77-41.303,5.382C14.19,169.246-13.106,228.99,6.2,283.817c10.068,28.589,26.69,70.363,48.713,107.015
			c31.838,52.988,65.925,79.855,101.313,79.855c7.292,0,14.63-1.17,21.81-3.478c4.129-1.327,7.991-3.368,11.585-6.093
			c7.694,11.286,20.087,22.413,39.995,30.318c20.223,8.03,46.533,12.102,78.2,12.103c0.002,0,0.003,0,0.007,0
			c42.844,0,87.359-7.327,117.157-13.474c27.444-5.662,51.163-21.256,66.787-43.912C507.543,423.27,520.782,390.744,504.665,357.41z
			 M248.524,106.157l4.548,12.257c-17.406,10.93-30.676,26.334-39.75,39.349C220.675,131.78,236.016,115.56,248.524,106.157z
			 M89.511,43.569c30.597,6.193,54.409,15.747,64.91,26.247c10.542,10.542,18.06,23.333,20.625,35.091
			c1.999,9.162,0.79,16.772-3.317,20.88c-2.83,2.829-7.093,4.264-12.672,4.264c-13.401,0-29.992-8.266-43.299-21.572
			C105.257,97.978,95.703,74.166,89.511,43.569z M178.778,420.511c-4.086,9.981-8.287,14.42-10.855,15.246
			c-3.962,1.273-7.789,1.892-11.701,1.892c-28.63,0-55.497-34.712-72.994-63.833c-20.593-34.274-36.31-73.827-45.869-100.971
			c-13.255-37.643,4.983-78.487,40.655-91.048c20.766-7.313,46.184-3.209,65.753,6.616c15.017,7.539,31.772,11.63,48.567,11.897
			c0.011,0,0.022,0.002,0.033,0.002c0.026,0,0.054-0.001,0.08,0c18.253,0.271,36.161-3.985,51.886-11.886
			c19.609-9.851,45.03-13.934,65.78-6.628c35.672,12.561,54.044,53.452,40.655,91.047c-5.272,14.804-17.791,49.459-28.498,70.977
			c-6.002,12.061-16.711,21.267-29.683,24.901c-4.117,1.153-8.295,1.817-12.352,1.817c-5.093,0-9.389-1.112-11.787-3.053
			c-5.019-4.063-11.342-6.3-17.803-6.3c-5.14,0-10.184,1.401-14.587,4.053l-30.981,18.654
			C183.382,396.957,179.818,417.964,178.778,420.511z M464.566,427.394c-10.767,15.614-27.198,26.379-46.265,30.312
			c-28.293,5.837-70.43,12.793-110.489,12.793c-39.632-0.001-88.532-7.046-96.425-40.606c-0.746-3.17,2.135-12.521,10.733-17.697
			l28.257-17.014c23.16,15.816,57.721,7.305,81.006-8.855c0.02-0.013,0.039-0.028,0.058-0.041
			c23.217-16.134,36.417-39.446,34.04-60.413c42.188-25.402,43.772-26.332,43.772-26.332s65.741,48.713,70.87,78.749
			C484.299,402.75,475.181,412.004,464.566,427.394z"/>
	</g>
</g>
</svg>